# xmcd CD database file
#
# Track frame offsets:
#	150
#	27923
#	50433
#	75895
#
# Disc length: 2817 seconds
#
# Revision: 0
# Processed by: cddbd v1.5PL3 Copyright (c) Steve Scherf et al.
# Submitted via: CDex 1.50
#
DISCID=200aff04
DTITLE=WAVE - WAVE III
DYEAR=1900
DGENRE=Jazz
TTITLE0=Windward
TTITLE1=Nagi
TTITLE2=White caps
TTITLE3=COncerto for the WaveII and Orchestra
EXTD=
EXTT0=
EXTT1=
EXTT2=
EXTT3=
PLAYORDER=
